<?xml version="1.0" encoding="UTF-8"?>
<svg width="399" height="177" xmlns="http://www.w3.org/2000/svg">
 <path d="m399 177h-399v-177h399zm-362-96.2c0 33.76 2.34 40.72 16.25 48.45 5.69 3.16 7.69 3.75 12.72 3.75 4.23 0 7.66-0.75 11.75-2.55 26.36-11.63 24.07-47.53-3.56-55.9-7.08-2.15-11.18-1.62-14.69 1.88-5.16 5.17-1.14 11.57 7.25 11.57 17.16 0 20.91 23.97 4.62 29.5-5.91 2.01-10.75 0.74-15.38-4.03-3.46-3.58-3.46-3.58-3.96-30.1-0.56-29.55-0.51-29.37-7.62-29.37-6.74 0-7.38 2.31-7.38 26.8m67-3.8c-3.09 3.09-3.09 49.92 0 53.61 1.27 1.52 3.07 2.39 4.93 2.39 1.97 0 3.6-0.86 5-2.63 3.2-4.07 3.2-48.67 0-52.74-2.54-3.22-7.05-3.51-9.93-0.63m27 22.39c0 16.34 3.83 23.73 15.6 30.13 4.25 2.31 7.73 3.48 10.36 3.48 3.35 0 4.38-0.55 6.75-3.57 3.81-4.87 1.42-9.35-5.71-10.74-10.09-1.97-13.34-7.46-12.81-21.69 0.31-8.5 0.31-8.5 8.29-8.8 9.23-0.34 12.52-2.33 12.52-7.55 0-5.25-2.3-6.65-10.95-6.65-8.74 0-10.05-0.79-10.05-6.09 0-6.85-5.48-10.38-10.87-6.99-2.81 1.77-3.13 2.46-3.13 6.87 0 4.8-0.09 4.94-4.01 6.48-6.87 2.7-6.53 10.35 0.59 13.33 3.42 1.43 3.42 1.43 3.42 11.79m44.59 17.33c3.09 6.37 8.92 11.55 16.06 14.25 2.94 1.12 6.72 2.03 8.4 2.03 1.9 0 3.96-0.92 5.5-2.45 4.93-4.94 1.94-11.11-5.91-12.19-9.38-1.28-12.14-5.49-12.14-18.51 0-11.35 0-11.35 8.15-11.85 9.54-0.59 12.35-2.32 12.35-7.6 0-4.68-2.91-6.4-10.79-6.4-8.36 0-10.21-1.05-10.21-5.81 0-7.56-7.79-11.4-12.51-6.18-3.24 3.58-2.36 47.59 1.1 54.71m43.58-29.44c-5.1 8.28-6.33 38.74-1.75 43.2 1.42 1.39 3.56 2.52 4.77 2.52 1.2 0 3.22-0.98 4.5-2.17 2.21-2.08 2.31-2.82 2.31-16.58 0-19.8 3.13-26.25 12.73-26.25 7.92 0 11.72-10.16 5.09-13.59-7.37-3.81-21.41 2.72-27.65 12.87m33.94 32.48c-7.09-4.73-14.49 4.37-8.61 10.59 1.38 1.46 3.51 2.64 4.75 2.63 1.24 0 2.84-0.39 3.57-0.84 4.57-2.9 4.72-9.43 0.29-12.38m15-33.28c-9.92 15.3-4.46 35.2 11.93 43.5 4.84 2.45 7.2 3.02 12.58 3.02 5.12 0 8.15-0.67 13.45-2.96 10.2-4.42 12.99-11.8 5.99-15.82-2.75-1.58-3.06-1.54-7.86 1.07-7.49 4.08-12.64 4.44-18.5 1.29-15.25-8.19-8.82-29.39 8.61-28.38 10.2 0.59 9.16 6.64-1.36 7.88-6.81 0.8-8.87 2.53-8.92 7.5-0.12 12.06 21 9.45 28.72-3.55 14.61-24.59-28.9-37.79-44.64-13.55m63.92-7c-18.12 13.3-14.7 41.26 6.22 50.88 4.19 1.92 7.38 2.64 11.77 2.64 4.12 0 7.97-0.79 12.2-2.51 10.46-4.25 13.92-10.35 8.78-15.49-2.67-2.67-4.81-2.52-10.6 0.71-9.49 5.31-18.99 3.06-24-5.67-6.6-11.48 3.95-24.42 17.66-21.68 7.23 1.45 4.16 7.64-3.8 7.64-8.16 0-12.02 7.33-6.67 12.68 5.56 5.56 20.68 0.7 26.54-8.55 12.37-19.49-17.57-35.72-38.1-20.65m-202.03-24.48 4-3 2-3 1.19-0.64c2.18-1.16 4.98-11.55 4.53-16.78-1.39-16.05-25.91-9.35-33.22 9.07-2.61 6.57-2.61 6.57-7.81 2.96-10.5-7.29-20.74-5.74-20.69 7.39l2.75 4.75c6.69 11.55 24.44 12.68 47.25-0.75z" fill="rgba(0,0,0,0)"/>
 <path d="m37 80.8c0-24.49 0.64-26.8 7.38-26.8 7.11 0 7.06-0.18 7.62 29.37 0.5 26.52 0.5 26.52 3.96 30.1 4.63 4.77 9.47 6.04 15.38 4.03 16.29-5.53 12.54-29.5-4.62-29.5-8.39 0-12.41-6.4-7.25-11.57 3.51-3.5 7.61-4.03 14.69-1.88 27.63 8.37 29.92 44.27 3.56 55.9-4.09 1.8-7.52 2.55-11.75 2.55-5.03 0-7.03-0.59-12.72-3.75-13.91-7.73-16.25-14.69-16.25-48.45" fill="rgba(17,79,81,0.988235)"/>
 <path d="m332.03 79.48c20.53-15.07 50.47 1.16 38.1 20.65-5.86 9.25-20.98 14.11-26.54 8.55-5.35-5.35-1.49-12.68 6.67-12.68 7.96 0 11.03-6.19 3.8-7.64-13.71-2.74-24.26 10.2-17.66 21.68 5.01 8.73 14.51 10.98 24 5.67 5.79-3.23 7.93-3.38 10.6-0.71 5.14 5.14 1.68 11.24-8.78 15.49-4.23 1.72-8.08 2.51-12.2 2.51-4.39 0-7.58-0.72-11.77-2.64-20.92-9.62-24.34-37.58-6.22-50.88" fill="rgba(17,79,81,0.988235)"/>
 <path d="m268.11 86.48c15.74-24.24 59.25-11.04 44.64 13.55-7.72 13-28.84 15.61-28.72 3.55 0.05-4.97 2.11-6.7 8.92-7.5 10.52-1.24 11.56-7.29 1.36-7.88-17.43-1.01-23.86 20.19-8.61 28.38 5.86 3.15 11.01 2.79 18.5-1.29 4.8-2.61 5.11-2.65 7.86-1.07 7 4.02 4.21 11.4-5.99 15.82-5.3 2.29-8.33 2.96-13.45 2.96-5.38 0-7.74-0.57-12.58-3.02-16.39-8.3-21.85-28.2-11.93-43.5" fill="rgba(17,79,81,0.988235)"/>
 <path d="m131 99.39c0-10.36 0-10.36-3.42-11.79-7.12-2.98-7.46-10.63-0.59-13.33 3.92-1.54 4.01-1.68 4.01-6.48 0-4.41 0.32-5.1 3.13-6.87 5.39-3.39 10.87 0.14 10.87 6.99 0 5.3 1.31 6.09 10.05 6.09 8.65 0 10.95 1.4 10.95 6.65 0 5.22-3.29 7.21-12.52 7.55-7.98 0.3-7.98 0.3-8.29 8.8-0.53 14.23 2.72 19.72 12.81 21.69 7.13 1.39 9.52 5.87 5.71 10.74-2.37 3.02-3.4 3.57-6.75 3.57-2.63 0-6.11-1.17-10.36-3.48-11.77-6.4-15.6-13.79-15.6-30.13" fill="rgba(17,79,81,0.988235)"/>
 <path d="m175.59 116.72c-3.46-7.12-4.34-51.13-1.1-54.71 4.72-5.22 12.51-1.38 12.51 6.18 0 4.76 1.85 5.81 10.21 5.81 7.88 0 10.79 1.72 10.79 6.4 0 5.28-2.81 7.01-12.35 7.6-8.15 0.5-8.15 0.5-8.15 11.85 0 13.02 2.76 17.23 12.14 18.51 7.85 1.08 10.84 7.25 5.91 12.19-1.54 1.53-3.6 2.45-5.5 2.45-1.68 0-5.46-0.91-8.4-2.03-7.14-2.7-12.97-7.88-16.06-14.25" fill="rgba(17,79,81,0.988235)"/>
 <path d="m219.17 87.28c6.24-10.15 20.28-16.68 27.65-12.87 6.63 3.43 2.83 13.59-5.09 13.59-9.6 0-12.73 6.45-12.73 26.25 0 13.76-0.1 14.5-2.31 16.58-1.28 1.19-3.3 2.17-4.5 2.17-1.21 0-3.35-1.13-4.77-2.52-4.58-4.46-3.35-34.92 1.75-43.2" fill="rgba(17,79,81,0.988235)"/>
 <path d="m80 51c-0.05-13.13 10.19-14.68 20.69-7.39 5.2 3.61 5.2 3.61 7.81-2.96 7.31-18.42 31.83-25.12 33.22-9.07 0.45 5.23-2.35 15.62-4.53 16.78l-1.19 0.64-3.25-1.75c-6.69-3.6-8.53-3.78-13.26-1.27-2.93 1.55-5.17 2.1-6.7 1.65-1.62-0.48-4.05 0.28-8.29 2.6-6 3.27-6 3.27-9.85 1.51-2.78-1.27-5.35-1.62-14.65-0.74z" fill="rgba(35,160,130,0.988235)"/>
 <path d="m104 77c2.88-2.88 7.39-2.59 9.93 0.63 3.2 4.07 3.2 48.67 0 52.74-1.4 1.77-3.03 2.63-5 2.63-1.86 0-3.66-0.87-4.93-2.39-3.09-3.69-3.09-50.52 0-53.61" fill="rgba(17,79,81,0.988235)"/>
 <path d="m80 51c9.3-0.88 11.87-0.53 14.65 0.74 3.85 1.76 3.85 1.76 9.85-1.51 4.24-2.32 6.67-3.08 8.29-2.6 1.53 0.45 3.77-0.1 6.7-1.65 4.73-2.51 6.57-2.33 13.26 1.27l3.25 1.75-2 3-4 3c-22.81 13.43-40.56 12.3-47.25 0.75z" fill="rgba(25,132,109,0.988235)"/>
 <path d="m253.11 119.76c4.43 2.95 4.28 9.48-0.29 12.38-0.73 0.45-2.33 0.84-3.57 0.84-1.24 0.01-3.37-1.17-4.75-2.63-5.88-6.22 1.52-15.32 8.61-10.59m-3.87 1.42c-3.46 0.4-5.26 3.93-3.48 6.82 0.7 1.13 2.32 2 3.73 2 1.38 0 3.03-0.86 3.7-1.93 1.95-3.13-0.43-7.29-3.95-6.89" fill="rgba(25,132,109,0.988235)"/>
 <path d="m252.03 124.06c1.24 2.31-0.18 4.94-2.65 4.94-0.76 0-1.91-0.86-2.57-1.92-0.93-1.51-0.9-2.26 0.12-3.5 1.8-2.17 3.79-1.98 5.1 0.48" fill="rgba(25,132,109,0.988235)"/>
 <path d="m249.24 121.18c3.52-0.4 5.9 3.76 3.95 6.89-0.67 1.07-2.32 1.93-3.7 1.93-1.41 0-3.03-0.87-3.73-2-1.78-2.89 0.02-6.42 3.48-6.82m2.79 2.88c-1.31-2.46-3.3-2.65-5.1-0.48-1.02 1.24-1.05 1.99-0.12 3.5 0.66 1.06 1.81 1.92 2.57 1.92 2.47 0 3.89-2.63 2.65-4.94" fill="rgba(35,160,130,0.988235)"/>
 <path d="m130 55 4-3z" fill="rgba(35,160,130,0.988235)"/>
</svg>
